HIERARCHY
ROOT Hips
{
  OFFSET 0 93.5 0
  CHANNELS 6 Xposition Yposition Zposition Zrotation Xrotation Yrotation
  JOINT Spine
  {
    OFFSET 0 8 0
    CHANNELS 6 Xposition Yposition Zposition Zrotation Xrotation Yrotation
    JOINT Spine1
    {
      OFFSET 0 8 0
      CHANNELS 6 Xposition Yposition Zposition Zrotation Xrotation Yrotation
      JOINT Spine2
      {
        OFFSET 0 8 0
        CHANNELS 6 Xposition Yposition Zposition Zrotation Xrotation Yrotation
        JOINT Spine3
        {
          OFFSET 0 8 0
          CHANNELS 6 Xposition Yposition Zposition Zrotation Xrotation Yrotation
          JOINT Neck
          {
            OFFSET 0 17 0
            CHANNELS 6 Xposition Yposition Zposition Zrotation Xrotation Yrotation
            JOINT Head
            {
              OFFSET 0 10.8 0
              CHANNELS 6 Xposition Yposition Zposition Zrotation Xrotation Yrotation
              End Site
              {
                OFFSET 0 20.25 0
              }
            }
          }
          JOINT LeftShoulder
          {
            OFFSET 5 17 0
            CHANNELS 6 Xposition Yposition Zposition Zrotation Xrotation Yrotation
            JOINT LeftShoulder2
            {
              OFFSET 6.45 0 0
              CHANNELS 6 Xposition Yposition Zposition Zrotation Xrotation Yrotation
              JOINT LeftArm
              {
                OFFSET 6.45 0 0
                CHANNELS 6 Xposition Yposition Zposition Zrotation Xrotation Yrotation
                JOINT LeftForeArm
                {
                  OFFSET 0 -32.4 -2
                  CHANNELS 6 Xposition Yposition Zposition Zrotation Xrotation Yrotation
                  JOINT LeftHand
                  {
                    OFFSET 0 -25.65 2
                    CHANNELS 6 Xposition Yposition Zposition Zrotation Xrotation Yrotation
                    JOINT LeftHandThumb1
                    {
                      OFFSET -0.49999 -1.50001 2.65
                      CHANNELS 6 Xposition Yposition Zposition Zrotation Xrotation Yrotation
                      JOINT LeftHandThumb2
                      {
                        OFFSET -1.31329e-05 -3.8 3.7
                        CHANNELS 6 Xposition Yposition Zposition Zrotation Xrotation Yrotation
                        JOINT LeftHandThumb3
                        {
                          OFFSET 0 -3 2.7
                          CHANNELS 6 Xposition Yposition Zposition Zrotation Xrotation Yrotation
                          End Site
                          {
                            OFFSET 0 -2.3 1.8
                          }
                        }
                      }
                    }
                    JOINT LeftHandIndex
                    {
                      OFFSET 0 -1.9 1.6
                      CHANNELS 6 Xposition Yposition Zposition Zrotation Xrotation Yrotation
                      JOINT LeftHandIndex1
                      {
                        OFFSET -1.34264e-05 -8.3 1.9
                        CHANNELS 6 Xposition Yposition Zposition Zrotation Xrotation Yrotation
                        JOINT LeftHandIndex2
                        {
                          OFFSET 1.49654e-05 -4.5 0
                          CHANNELS 6 Xposition Yposition Zposition Zrotation Xrotation Yrotation
                          JOINT LeftHandIndex3
                          {
                            OFFSET -1.17358e-05 -3.4 0
                            CHANNELS 6 Xposition Yposition Zposition Zrotation Xrotation Yrotation
                            End Site
                            {
                              OFFSET 0 -2.6 0
                            }
                          }
                        }
                      }
                    }
                    JOINT LeftHandMiddle
                    {
                      OFFSET -0.249992 -2.2 0.4
                      CHANNELS 6 Xposition Yposition Zposition Zrotation Xrotation Yrotation
                      JOINT LeftHandMiddle1
                      {
                        OFFSET 0 -8.3 1
                        CHANNELS 6 Xposition Yposition Zposition Zrotation Xrotation Yrotation
                        JOINT LeftHandMiddle2
                        {
                          OFFSET 0 -4.64999 0
                          CHANNELS 6 Xposition Yposition Zposition Zrotation Xrotation Yrotation
                          JOINT LeftHandMiddle3
                          {
                            OFFSET -1.14004e-05 -3.3 0
                            CHANNELS 6 Xposition Yposition Zposition Zrotation Xrotation Yrotation
                            End Site
                            {
                              OFFSET 0 -2.7 0
                            }
                          }
                        }
                      }
                    }
                    JOINT LeftHandRing
                    {
                      OFFSET -0.499992 -2.15001 -0.8
                      CHANNELS 6 Xposition Yposition Zposition Zrotation Xrotation Yrotation
                      JOINT LeftHandRing1
                      {
                        OFFSET -1.15255e-05 -7.75 -0.2
                        CHANNELS 6 Xposition Yposition Zposition Zrotation Xrotation Yrotation
                        JOINT LeftHandRing2
                        {
                          OFFSET 0 -3.8 0
                          CHANNELS 6 Xposition Yposition Zposition Zrotation Xrotation Yrotation
                          JOINT LeftHandRing3
                          {
                            OFFSET 0 -3.4 0
                            CHANNELS 6 Xposition Yposition Zposition Zrotation Xrotation Yrotation
                            End Site
                            {
                              OFFSET 0 -2.6 0
                            }
                          }
                        }
                      }
                    }
                    JOINT LeftHandPinky
                    {
                      OFFSET -0.749991 -1.75001 -1.85
                      CHANNELS 6 Xposition Yposition Zposition Zrotation Xrotation Yrotation
                      JOINT LeftHandPinky1
                      {
                        OFFSET 0 -7.15 -1
                        CHANNELS 6 Xposition Yposition Zposition Zrotation Xrotation Yrotation
                        JOINT LeftHandPinky2
                        {
                          OFFSET 0 -3 0
                          CHANNELS 6 Xposition Yposition Zposition Zrotation Xrotation Yrotation
                          JOINT LeftHandPinky3
                          {
                            OFFSET 0 -2.35 0
                            CHANNELS 6 Xposition Yposition Zposition Zrotation Xrotation Yrotation
                            End Site
                            {
                              OFFSET 0 -2.1 0
                            }
                          }
                        }
                      }
                    }
                  }
                }
              }
            }
          }
          JOINT RightShoulder
          {
            OFFSET -5 17 0
            CHANNELS 6 Xposition Yposition Zposition Zrotation Xrotation Yrotation
            JOINT RightShoulder2
            {
              OFFSET -6.45 0 0
              CHANNELS 6 Xposition Yposition Zposition Zrotation Xrotation Yrotation
              JOINT RightArm
              {
                OFFSET -6.45 0 0
                CHANNELS 6 Xposition Yposition Zposition Zrotation Xrotation Yrotation
                JOINT RightForeArm
                {
                  OFFSET 0 -32.4 -2
                  CHANNELS 6 Xposition Yposition Zposition Zrotation Xrotation Yrotation
                  JOINT RightHand
                  {
                    OFFSET 0 -25.65 2
                    CHANNELS 6 Xposition Yposition Zposition Zrotation Xrotation Yrotation
                    JOINT RightHandThumb1
                    {
                      OFFSET 0.49999 -1.50001 2.65
                      CHANNELS 6 Xposition Yposition Zposition Zrotation Xrotation Yrotation
                      JOINT RightHandThumb2
                      {
                        OFFSET 1.31329e-05 -3.8 3.7
                        CHANNELS 6 Xposition Yposition Zposition Zrotation Xrotation Yrotation
                        JOINT RightHandThumb3
                        {
                          OFFSET 0 -3 2.7
                          CHANNELS 6 Xposition Yposition Zposition Zrotation Xrotation Yrotation
                          End Site
                          {
                            OFFSET 0 -2.3 1.8
                          }
                        }
                      }
                    }
                    JOINT RightHandIndex
                    {
                      OFFSET 0 -1.9 1.6
                      CHANNELS 6 Xposition Yposition Zposition Zrotation Xrotation Yrotation
                      JOINT RightHandIndex1
                      {
                        OFFSET 1.34264e-05 -8.3 1.9
                        CHANNELS 6 Xposition Yposition Zposition Zrotation Xrotation Yrotation
                        JOINT RightHandIndex2
                        {
                          OFFSET -1.49654e-05 -4.5 0
                          CHANNELS 6 Xposition Yposition Zposition Zrotation Xrotation Yrotation
                          JOINT RightHandIndex3
                          {
                            OFFSET 1.17505e-05 -3.4 0
                            CHANNELS 6 Xposition Yposition Zposition Zrotation Xrotation Yrotation
                            End Site
                            {
                              OFFSET 0 -2.6 0
                            }
                          }
                        }
                      }
                    }
                    JOINT RightHandMiddle
                    {
                      OFFSET 0.249992 -2.2 0.4
                      CHANNELS 6 Xposition Yposition Zposition Zrotation Xrotation Yrotation
                      JOINT RightHandMiddle1
                      {
                        OFFSET 0 -8.3 1
                        CHANNELS 6 Xposition Yposition Zposition Zrotation Xrotation Yrotation
                        JOINT RightHandMiddle2
                        {
                          OFFSET 0 -4.64999 0
                          CHANNELS 6 Xposition Yposition Zposition Zrotation Xrotation Yrotation
                          JOINT RightHandMiddle3
                          {
                            OFFSET 1.14053e-05 -3.3 0
                            CHANNELS 6 Xposition Yposition Zposition Zrotation Xrotation Yrotation
                            End Site
                            {
                              OFFSET 0 -2.7 0
                            }
                          }
                        }
                      }
                    }
                    JOINT RightHandRing
                    {
                      OFFSET 0.499992 -2.15001 -0.8
                      CHANNELS 6 Xposition Yposition Zposition Zrotation Xrotation Yrotation
                      JOINT RightHandRing1
                      {
                        OFFSET 1.15255e-05 -7.75 -0.2
                        CHANNELS 6 Xposition Yposition Zposition Zrotation Xrotation Yrotation
                        JOINT RightHandRing2
                        {
                          OFFSET 0 -3.8 0
                          CHANNELS 6 Xposition Yposition Zposition Zrotation Xrotation Yrotation
                          JOINT RightHandRing3
                          {
                            OFFSET 0 -3.4 0
                            CHANNELS 6 Xposition Yposition Zposition Zrotation Xrotation Yrotation
                            End Site
                            {
                              OFFSET 0 -2.6 0
                            }
                          }
                        }
                      }
                    }
                    JOINT RightHandPinky
                    {
                      OFFSET 0.749991 -1.75001 -1.85
                      CHANNELS 6 Xposition Yposition Zposition Zrotation Xrotation Yrotation
                      JOINT RightHandPinky1
                      {
                        OFFSET 0 -7.15 -1
                        CHANNELS 6 Xposition Yposition Zposition Zrotation Xrotation Yrotation
                        JOINT RightHandPinky2
                        {
                          OFFSET 0 -3 0
                          CHANNELS 6 Xposition Yposition Zposition Zrotation Xrotation Yrotation
                          JOINT RightHandPinky3
                          {
                            OFFSET 0 -2.35 0
                            CHANNELS 6 Xposition Yposition Zposition Zrotation Xrotation Yrotation
                            End Site
                            {
                              OFFSET 0 -2.1 0
                            }
                          }
                        }
                      }
                    }
                  }
                }
              }
            }
          }
        }
      }
    }
  }
  JOINT LeftUpLeg
  {
    OFFSET 8 0 0
    CHANNELS 6 Xposition Yposition Zposition Zrotation Xrotation Yrotation
    JOINT LeftLeg
    {
      OFFSET 0 -45 -1
      CHANNELS 6 Xposition Yposition Zposition Zrotation Xrotation Yrotation
      JOINT LeftFoot
      {
        OFFSET 0 -41 -2
        CHANNELS 6 Xposition Yposition Zposition Zrotation Xrotation Yrotation
        JOINT LeftToeBase
        {
          OFFSET 0 -7.5 12.5
          CHANNELS 6 Xposition Yposition Zposition Zrotation Xrotation Yrotation
          JOINT LeftFootToe
          {
            OFFSET 0 0 4
            CHANNELS 6 Xposition Yposition Zposition Zrotation Xrotation Yrotation
            End Site
            {
              OFFSET 0 0 0
            }
          }
        }
      }
    }
  }
  JOINT RightUpLeg
  {
    OFFSET -8 0 0
    CHANNELS 6 Xposition Yposition Zposition Zrotation Xrotation Yrotation
    JOINT RightLeg
    {
      OFFSET 0 -45 -1
      CHANNELS 6 Xposition Yposition Zposition Zrotation Xrotation Yrotation
      JOINT RightFoot
      {
        OFFSET 0 -41 -2
        CHANNELS 6 Xposition Yposition Zposition Zrotation Xrotation Yrotation
        JOINT RightToeBase
        {
          OFFSET 0 -7.5 12.5
          CHANNELS 6 Xposition Yposition Zposition Zrotation Xrotation Yrotation
          JOINT RightFootToe
          {
            OFFSET 0 0 4
            CHANNELS 6 Xposition Yposition Zposition Zrotation Xrotation Yrotation
            End Site
            {
              OFFSET 0 0 0
            }
          }
        }
      }
    }
  }
}
MOTION
Frames:	3
Frame Time:	0.0111111
0 93.5 0 0 0 -0 0 8 0 0 0 -0 0 8 0 0 0 -0 0 8 0 0 0 -0 0 8 0 0 0 -0 0 17 0 0 0 -0 0 10.8 0 0 0 -0 5 17 0 0 0 -0 6.45 0 0 0 0 -0 6.45 0 0 90.0002 -2.95078e-16 -2.03706e-21 0 -32.4 -2 -2.39185e-39 5.45195e-16 -1.85533e-21 0 -25.65 2 1.69916e-38 0 -1.34702e-36 -0.5 -1.5 2.65 1.40913e-37 1.30643e-15 -4.56152e-21 0 -3.8 3.7 1.5468e-36 6.27476e-15 -9.63647e-21 0 -3 2.7 0.00413685 7.77448e-08 -0.00275031 -2.84217e-14 -1.9 1.6 1.69916e-38 0 -1.34702e-36 2.84217e-14 -8.3 1.9 1.69916e-38 0 -1.34702e-36 0 -4.5 0 -2.87879e-07 -0.00339554 -0.00903978 0 -3.4 0 -4.63768e-07 -0.000696165 -0.00624328 -0.25 -2.2 0.4 7.20619e-38 -7.95139e-16 5.7893e-21 2.84217e-14 -8.3 1 1.80443e-38 0 3.36754e-37 0 -4.65 0 -1.06477e-07 -0.00248787 -0.00424882 0 -3.3 -2.22045e-16 -1.27663e-07 -0.000344512 -0.00307076 -0.5 -2.15 -0.8 2.25055e-38 1.98785e-16 -7.03764e-22 0 -7.75 -0.2 3.60099e-38 -1.76556e-31 -0 2.84217e-14 -3.8 0 -3.01743e-05 -0.00576623 -0.0135371 0 -3.4 0 -6.37897e-08 -0.00446242 -0.00257087 -0.75 -1.75 -1.85 4.34709e-38 -1.04818e-26 -6.06578e-21 0 -7.15 -1 -1.70567e-14 1.83449e-10 0.00135377 2.84217e-14 -3 4.44089e-16 1.64865e-06 9.56152e-08 -4.98221e-10 2.84217e-14 -2.35 0 -4.50433e-06 -0.00149584 -1.37129e-10 -5 17 0 0 0 -0 -6.45 0 0 0 0 -0 -6.45 0 0 -90.0002 -2.95058e-16 2.02033e-21 0 -32.4 -2 1.54717e-38 5.45175e-16 -1.16084e-21 0 -25.65 2 -3.75199e-39 -4.41391e-32 -0 0.5 -1.5 2.65 2.05088e-37 1.30642e-15 -7.68734e-21 0 -3.8 3.7 2.20301e-36 6.27475e-15 -1.47607e-20 0 -3 2.7 0.00732169 -1.69084e-07 -0.00170685 2.84217e-14 -1.9 1.6 -3.02313e-38 -1.04819e-26 6.06578e-21 -2.84217e-14 -8.3 1.9 -3.02313e-38 0 -0 0 -4.5 0 9.24717e-10 6.80266e-05 -0.0017949 -2.84217e-14 -3.4 0 2.70182e-09 6.71846e-05 -0.00297411 0.25 -2.2 0.4 -2.98128e-38 -7.95139e-16 -2.73965e-21 -2.84217e-14 -8.3 1 -1.78849e-38 0 -3.36754e-37 0 -4.65 0 5.90285e-07 0.00738257 -0.00453079 2.84217e-14 -3.3 2.22045e-16 4.01264e-06 0.00851787 0.00445293 0.5 -2.15 -0.8 -3.09558e-39 1.98785e-16 -8.37814e-23 0 -7.75 -0.2 -6.07754e-39 -1.76556e-31 -3.36754e-37 -2.84217e-14 -3.8 0 2.9021e-05 0.000966626 -0.00237399 0 -3.4 0 5.30073e-08 0.000755957 -0.00281045 0.75 -1.75 -1.85 -3.75199e-39 -4.41391e-32 -0 0 -7.15 -1 -3.75199e-39 -4.41391e-32 3.36754e-37 0 -3 0 1.02374e-09 0.00310513 0.00237781 2.84217e-14 -2.35 0 2.24204e-07 0.00286146 -0.00198723 8 0 0 -2.58845e-63 2.1e-31 7.06225e-31 0 -45 -1 -2.58845e-63 -2.1e-31 -7.06225e-31 0 -41 -2 0 0 -0 0 -7.5 12.5 -0 -5.58657e-08 -0 0 0 4 0 0 -0 -8 0 0 -2.58845e-63 2.1e-31 7.06225e-31 0 -45 -1 -2.58845e-63 -2.1e-31 -7.06225e-31 0 -41 -2 0 0 -0 0 -7.5 12.5 0 0 -0 0 0 4 0 0 -0 
-20.7799 82.6204 -32.6898 -4.09958 5.40146 22.0847 3.55271e-15 8 7.10543e-15 4.76885 5.98284 -3.6857 1.77636e-15 8 -7.10543e-15 -4.17886 6.20687 3.38607 3.55271e-15 8 0 0.690024 1.40623 0.75358 0 8 0 1.67613 2.73293 0.347296 8.88178e-16 17 0 -0.446845 -4.60325 0.531105 8.88178e-16 10.8 7.10543e-15 -1.1097 -10.8605 1.07363 5 17 0 -3.05047 -1.24834 6.60817 6.45 1.42109e-14 -1.42109e-14 5.83654 1.28808 -3.51688 6.45 0 0 62.0987 -9.52561 -7.63887 1.42109e-14 -32.4 -2 -10.2467 -32.8251 -12.8576 1.42109e-14 -25.65 2 16.0166 -5.98397 -19.0828 -0.5 -1.5 2.65 -4.03414 -4.74578 3.0799 -7.10543e-15 -3.8 3.7 0.0319582 6.07507 -0.0177139 0 -3 2.7 0.00440601 5.58939 -0.00276344 0 -1.9 1.6 0 0 -3.18055e-15 -7.10543e-15 -8.3 1.9 -2.26656 4.19022 0.251469 0 -4.5 1.42109e-14 -7.77489 -0.00339554 -0.00903978 0 -3.4 -1.42109e-14 -6.12302 -0.000696165 -0.00624328 -0.25 -2.2 0.4 0 0 -3.18055e-15 7.10543e-15 -8.3 1 -1.6815 3.29758 0.151919 0 -4.65 -1.42109e-14 -7.42592 -0.00248787 -0.00424882 -1.42109e-14 -3.3 0 -5.89683 -0.000344512 -0.00307076 -0.5 -2.15 -0.8 0 0 -3.18055e-15 1.42109e-14 -7.75 -0.2 -0.579685 1.59087 0.031085 0 -3.8 -1.42109e-14 -2.92412 -0.00576623 -0.0135371 -2.13163e-14 -3.4 0 -2.63887 -0.00446242 -0.00257087 -0.75 -1.75 -1.85 0 0 -3.18055e-15 0 -7.15 -1 -0.017825 0.690271 0.00135386 1.42109e-14 -3 0 1.64865e-06 9.56152e-08 -4.98212e-10 0 -2.35 0 -4.50433e-06 -0.00149584 -1.37126e-10 -5 17 0 0.485199 -1.53421 -1.9118 -6.45 0 0 6.52924 4.89538 0.686938 -6.45 1.42109e-14 0 -78.9635 -22.2788 4.64738 0 -32.4 -2 2.38441 -12.7081 1.86055 1.42109e-14 -25.65 2 -2.72489 1.85366 1.51585 0.5 -1.5 2.65 0.789197 -9.53827 3.35354 0 -3.8 3.7 0.0362646 12.6533 -0.0156748 -1.42109e-14 -3 2.7 0.00797082 6.57585 -0.00566833 0 -1.9 1.6 -1.76556e-31 -3.18055e-15 -3.18055e-15 0 -8.3 1.9 0.596497 3.97697 -0.0776185 0 -4.5 0 3.50389 6.80266e-05 -0.0017949 1.42109e-14 -3.4 0 3.10292 6.71846e-05 -0.00297411 0.25 -2.2 0.4 -1.76556e-31 -3.18055e-15 -3.18055e-15 -1.42109e-14 -8.3 1 2.74359 4.43863 -0.386992 -1.42109e-14 -4.65 -1.42109e-14 16.5852 0.00738257 -0.00453079 0 -3.3 -1.42109e-14 11.5029 0.00851787 0.00445293 0.5 -2.15 -0.8 -1.76556e-31 -3.18055e-15 -3.18055e-15 0 -7.75 -0.2 6.1504 4.59405 -0.906749 1.42109e-14 -3.8 0 14.2602 0.000966626 -0.00237399 -1.42109e-14 -3.4 0 10.0661 0.000755957 -0.00281045 0.75 -1.75 -1.85 -1.76556e-31 -3.18055e-15 -3.18055e-15 0 -7.15 -1 7.72498 4.301 -1.0876 -1.42109e-14 -3 -2.84217e-14 17.5337 0.00310513 0.00237781 0 -2.35 -1.42109e-14 12.1164 0.00286146 -0.00198723 8 0 7.10543e-15 -0.494271 -33.0429 0.768944 8.88178e-16 -45 -1 0.367672 33.3787 0.833023 8.88178e-16 -41 -2 2.19423 -6.10551 0.256141 -2.66454e-15 -7.5 12.5 4.96962e-17 -5.58657e-08 -0 -8.88178e-16 -8.88178e-16 4 1.27473 0.139291 0.110442 -8 1.42109e-14 7.10543e-15 -1.05366 -28.5445 -7.33643 3.55271e-15 -45 -1 1.20159 38.528 1.38676 -3.55271e-15 -41 -2 -3.72879 -6.66503 6.595 -1.77636e-15 -7.5 12.5 -5.61275e-16 -11.2289 3.24263e-15 -3.55271e-15 8.88178e-16 4 10.6315 30.2362 -0.00902449 
-41.5599 71.7408 -65.3796 -11.9718 8.35935 44.5593 0 8 0 10.3207 11.8908 -7.49287 1.06581e-14 8 0 -9.1055 12.3482 6.8926 0 8 0 1.34302 2.81173 1.50852 -3.55271e-15 8 0 1.68031 2.7464 0.366378 0 17 0 -0.807335 -9.20531 1.0726 0 10.8 0 -1.78404 -21.7093 2.26986 5 17 0 -5.81532 -2.44679 13.2255 6.45 1.42109e-14 -1.42109e-14 5.8113 1.305 -3.49042 6.45 0 0 31.5627 -18.5335 -15.9112 0 -32.4 -2 -47.24 -58.8724 -45.2925 -1.77636e-15 -25.65 2 28.3003 -9.95071 -38.6353 -0.5 -1.5 2.65 -7.55264 -9.45021 6.22346 7.10543e-15 -3.8 3.7 0.0677518 12.1501 -0.036036 -3.55271e-15 -3 2.7 0.00468037 11.1788 -0.0028035 3.55271e-15 -1.9 1.6 4.77083e-15 -3.18055e-15 3.18055e-15 -3.55271e-15 -8.3 1.9 -4.57026 8.38019 0.507008 0 -4.5 0 -15.5498 -0.00339554 -0.00903978 0 -3.4 -7.10543e-15 -12.246 -0.000696165 -0.00624328 -0.25 -2.2 0.4 4.77083e-15 -3.18055e-15 3.18055e-15 -7.10543e-15 -8.3 1 -3.38059 6.59508 0.305355 -3.55271e-15 -4.65 -7.10543e-15 -14.8518 -0.00248787 -0.00424882 3.55271e-15 -3.3 0 -11.7937 -0.000344512 -0.00307076 -0.5 -2.15 -0.8 4.77083e-15 -3.18055e-15 3.18055e-15 3.55271e-15 -7.75 -0.2 -1.1611 3.18173 0.062242 -7.10543e-15 -3.8 0 -5.84821 -0.00576623 -0.0135371 3.55271e-15 -3.4 0 -5.27773 -0.00446242 -0.00257087 -0.75 -1.75 -1.85 4.77083e-15 -3.18055e-15 3.18055e-15 0 -7.15 -1 -0.03565 1.38054 0.00135416 7.10543e-15 -3 0 1.64865e-06 9.56152e-08 -4.98215e-10 -7.10543e-15 -2.35 7.10543e-15 -4.50433e-06 -0.00149584 -1.37126e-10 -5 17 0 0.867955 -3.0633 -3.82771 -6.45 0 1.42109e-14 6.55749 4.89531 0.727844 -6.45 7.10543e-15 0 -63.0431 -44.0564 12.009 7.10543e-15 -32.4 -2 5.67416 -25.3746 4.01811 -3.55271e-15 -25.65 2 -5.54801 3.70343 3.03646 0.5 -1.5 2.65 2.75096 -18.9766 6.99623 3.55271e-15 -3.8 3.7 0.0801253 25.3066 -0.0338353 8.88178e-16 -3 2.7 0.00955435 13.1517 -0.0098126 -3.55271e-15 -1.9 1.6 0 0 -0 -3.55271e-15 -8.3 1.9 1.20387 7.95392 -0.156368 -1.77636e-15 -4.5 0 7.00778 6.80266e-05 -0.0017949 -3.55271e-15 -3.4 0 6.20584 6.71846e-05 -0.00297411 0.25 -2.2 0.4 -0 -7.95139e-16 -0 1.77636e-15 -8.3 1 5.54781 8.87665 -0.781017 0 -4.65 -7.10543e-15 33.1704 0.00738257 -0.00453079 0 -3.3 0 23.0058 0.00851787 0.00445293 0.5 -2.15 -0.8 0 0 -0 3.55271e-15 -7.75 -0.2 12.4479 9.18464 -1.83116 -8.88178e-16 -3.8 7.10543e-15 28.5203 0.000966626 -0.00237399 0 -3.4 0 20.1322 0.000755957 -0.00281045 0.75 -1.75 -1.85 0 0 -0 3.55271e-15 -7.15 -1 15.6149 8.59734 -2.19374 4.44089e-16 -3 0 35.0673 0.00310513 0.00237781 3.55271e-15 -2.35 -7.10543e-15 24.2328 0.00286146 -0.00198723 8 -1.42109e-14 -1.42109e-14 1.07793 -66.0577 3.17803 0 -45 -1 -1.58442 66.7237 3.52248 0 -41 -2 4.44421 -12.2106 0.521168 0 -7.5 12.5 6.20234e-24 -5.58657e-08 6.36111e-15 0 -8.88178e-16 4 1.12418 0.138339 0.0916165 -8 0 0 -14.3427 -55.2887 -23.0473 0 -45 -1 -5.23474 76.8947 9.61159 3.55271e-15 -41 -2 -5.90001 -13.0626 13.4549 0 -7.5 12.5 4.49524e-15 -22.4578 3.44156e-15 -7.10543e-15 0 4 9.31346 30.1346 0.0406608 
